<svg width="24" height="24" viewBox="0 0 24 24" fill="none" xmlns="http://www.w3.org/2000/svg">
<path d="M6.45187 0C5.83078 0 5.32687 0.503906 5.32687 1.125V17.9016L4.07672 17.6203C3.18844 17.4206 2.49375 18.3834 2.9639 19.1634L5.56594 23.4811C5.96812 24.1481 6.93562 24.1481 7.33781 23.4811L9.93984 19.1634C10.41 18.3834 9.71531 17.4206 8.82703 17.6203L7.57687 17.9016V1.125C7.57687 0.503906 7.07297 0 6.45187 0ZM21.1294 8.76609L18.3244 0.912656C18.2331 0.657362 18.0652 0.436513 17.8436 0.280351C17.622 0.124189 17.3575 0.0403492 17.0864 0.0403125H16.9875C16.432 0.0403125 15.9361 0.389531 15.7495 0.912656L12.9445 8.76609C12.7148 9.40922 13.1916 10.0861 13.875 10.0861C14.2983 10.0861 14.6742 9.81656 14.8106 9.41578L15.1139 8.52188H18.96L19.2633 9.41578C19.3992 9.81656 19.7756 10.0861 20.1989 10.0861C20.8819 10.0861 21.3591 9.40922 21.1294 8.76609ZM15.7598 6.65625L17.0227 2.95359H17.0512L18.3141 6.65625H15.7594H15.7598ZM20.4577 16.0547C20.6269 15.8277 20.7183 15.5522 20.7183 15.2691C20.7183 14.543 20.1295 13.9542 19.4034 13.9542H14.4755C13.9364 13.9542 13.4995 14.3911 13.4995 14.9302C13.4995 15.4692 13.9364 15.9061 14.4755 15.9061H18.0633V15.9347L13.6167 21.8995C13.4475 22.1265 13.3561 22.402 13.3561 22.6852C13.3561 23.4113 13.9448 24 14.6709 24H19.7283C20.2673 24 20.7042 23.5631 20.7042 23.0241C20.7042 22.485 20.2673 22.0481 19.7283 22.0481H16.0111V22.0195L20.4577 16.0547Z"/>
</svg>
